<mxfile host="app.diagrams.net" agent="Mozilla/5.0 (Macintosh; Intel Mac OS X 10_15_7) AppleWebKit/537.36 (KHTML, like Gecko) Chrome/131.0.0.0 Safari/537.36 Edg/131.0.0.0" version="25.0.3">
  <diagram name="第 1 页" id="arqg8u6RAYMiUe3J6P46">
    <mxGraphModel dx="1757" dy="1087" grid="1" gridSize="10" guides="1" tooltips="1" connect="1" arrows="1" fold="1" page="1" pageScale="1" pageWidth="827" pageHeight="1169" math="0" shadow="0">
      <root>
        <mxCell id="0" />
        <mxCell id="1" parent="0" />
        <mxCell id="srE0o9tzIdVCHpYkDHcw-1" value="上报风险挑战项" style="swimlane;childLayout=stackLayout;resizeParent=1;resizeParentMax=0;startSize=20;html=1;labelBackgroundColor=none;fillColor=#B2C9AB;strokeColor=#788AA3;fontColor=#46495D;" vertex="1" parent="1">
          <mxGeometry x="234.00000000000045" y="70" width="1170" height="1900" as="geometry" />
        </mxCell>
        <mxCell id="srE0o9tzIdVCHpYkDHcw-2" value="xyf-api-gateway" style="swimlane;startSize=20;html=1;labelBackgroundColor=none;fillColor=#B2C9AB;strokeColor=#788AA3;fontColor=#46495D;" vertex="1" parent="srE0o9tzIdVCHpYkDHcw-1">
          <mxGeometry y="20" width="180" height="1880" as="geometry" />
        </mxCell>
        <mxCell id="srE0o9tzIdVCHpYkDHcw-3" value="" style="edgeStyle=orthogonalEdgeStyle;rounded=0;orthogonalLoop=1;jettySize=auto;html=1;strokeColor=#788AA3;fontColor=#46495D;fillColor=#B2C9AB;" edge="1" parent="srE0o9tzIdVCHpYkDHcw-2" source="srE0o9tzIdVCHpYkDHcw-4" target="srE0o9tzIdVCHpYkDHcw-6">
          <mxGeometry relative="1" as="geometry" />
        </mxCell>
        <mxCell id="srE0o9tzIdVCHpYkDHcw-4" value="进件接口" style="rounded=1;whiteSpace=wrap;html=1;strokeColor=#788AA3;fontColor=#46495D;fillColor=#B2C9AB;" vertex="1" parent="srE0o9tzIdVCHpYkDHcw-2">
          <mxGeometry x="29.999999999999545" y="30" width="120" height="60" as="geometry" />
        </mxCell>
        <mxCell id="srE0o9tzIdVCHpYkDHcw-5" value="" style="edgeStyle=orthogonalEdgeStyle;rounded=0;orthogonalLoop=1;jettySize=auto;html=1;strokeColor=#788AA3;fontColor=#46495D;fillColor=#B2C9AB;" edge="1" parent="srE0o9tzIdVCHpYkDHcw-2" source="srE0o9tzIdVCHpYkDHcw-6" target="srE0o9tzIdVCHpYkDHcw-8">
          <mxGeometry relative="1" as="geometry" />
        </mxCell>
        <mxCell id="srE0o9tzIdVCHpYkDHcw-6" value="请求收单" style="rounded=1;whiteSpace=wrap;html=1;strokeColor=#788AA3;fontColor=#46495D;fillColor=#B2C9AB;" vertex="1" parent="srE0o9tzIdVCHpYkDHcw-2">
          <mxGeometry x="29.999999999999545" y="110" width="120" height="60" as="geometry" />
        </mxCell>
        <mxCell id="srE0o9tzIdVCHpYkDHcw-7" value="" style="edgeStyle=orthogonalEdgeStyle;rounded=0;orthogonalLoop=1;jettySize=auto;html=1;strokeColor=#788AA3;fontColor=#46495D;fillColor=#B2C9AB;" edge="1" parent="srE0o9tzIdVCHpYkDHcw-2" source="srE0o9tzIdVCHpYkDHcw-8" target="srE0o9tzIdVCHpYkDHcw-9">
          <mxGeometry relative="1" as="geometry" />
        </mxCell>
        <mxCell id="srE0o9tzIdVCHpYkDHcw-8" value="请求上报风险挑战项" style="rounded=1;whiteSpace=wrap;html=1;strokeColor=#788AA3;fontColor=#46495D;fillColor=#B2C9AB;" vertex="1" parent="srE0o9tzIdVCHpYkDHcw-2">
          <mxGeometry x="29.999999999999545" y="190" width="120" height="60" as="geometry" />
        </mxCell>
        <mxCell id="srE0o9tzIdVCHpYkDHcw-9" value="请求激活" style="rounded=1;whiteSpace=wrap;html=1;strokeColor=#788AA3;fontColor=#46495D;fillColor=#B2C9AB;" vertex="1" parent="srE0o9tzIdVCHpYkDHcw-2">
          <mxGeometry x="29.999999999999545" y="270" width="120" height="60" as="geometry" />
        </mxCell>
        <mxCell id="srE0o9tzIdVCHpYkDHcw-10" value="openplatformcore" style="swimlane;startSize=20;html=1;labelBackgroundColor=none;fillColor=#B2C9AB;strokeColor=#788AA3;fontColor=#46495D;" vertex="1" parent="srE0o9tzIdVCHpYkDHcw-1">
          <mxGeometry x="180" y="20" width="530" height="1880" as="geometry" />
        </mxCell>
        <mxCell id="srE0o9tzIdVCHpYkDHcw-12" value="" style="edgeStyle=orthogonalEdgeStyle;rounded=1;orthogonalLoop=1;jettySize=auto;html=1;strokeColor=#788AA3;fontColor=#46495D;fillColor=#B2C9AB;curved=0;exitX=0.955;exitY=0.504;exitDx=0;exitDy=0;exitPerimeter=0;" edge="1" parent="srE0o9tzIdVCHpYkDHcw-10" source="srE0o9tzIdVCHpYkDHcw-15" target="srE0o9tzIdVCHpYkDHcw-16">
          <mxGeometry relative="1" as="geometry" />
        </mxCell>
        <mxCell id="srE0o9tzIdVCHpYkDHcw-13" value="否" style="edgeLabel;html=1;align=center;verticalAlign=middle;resizable=0;points=[];fontColor=#46495D;" vertex="1" connectable="0" parent="srE0o9tzIdVCHpYkDHcw-12">
          <mxGeometry x="-0.1469" relative="1" as="geometry">
            <mxPoint as="offset" />
          </mxGeometry>
        </mxCell>
        <mxCell id="srE0o9tzIdVCHpYkDHcw-14" value="是" style="edgeStyle=orthogonalEdgeStyle;shape=connector;curved=0;rounded=1;orthogonalLoop=1;jettySize=auto;html=1;labelBackgroundColor=default;strokeColor=#788AA3;align=center;verticalAlign=middle;fontFamily=Helvetica;fontSize=11;fontColor=#46495D;endArrow=classic;fillColor=#B2C9AB;entryX=0.5;entryY=0;entryDx=0;entryDy=0;" edge="1" parent="srE0o9tzIdVCHpYkDHcw-10" source="srE0o9tzIdVCHpYkDHcw-15" target="srE0o9tzIdVCHpYkDHcw-89">
          <mxGeometry relative="1" as="geometry">
            <mxPoint x="144" y="180" as="targetPoint" />
          </mxGeometry>
        </mxCell>
        <mxCell id="srE0o9tzIdVCHpYkDHcw-15" value="cash_out+apply表是否有该订单的数据" style="rhombus;whiteSpace=wrap;html=1;fillColor=#B2C9AB;strokeColor=#788AA3;fontColor=#46495D;rounded=1;" vertex="1" parent="srE0o9tzIdVCHpYkDHcw-10">
          <mxGeometry x="54" y="40" width="180" height="100" as="geometry" />
        </mxCell>
        <mxCell id="srE0o9tzIdVCHpYkDHcw-16" value="返回订单不存在" style="whiteSpace=wrap;html=1;fillColor=#B2C9AB;strokeColor=#788AA3;fontColor=#46495D;rounded=1;" vertex="1" parent="srE0o9tzIdVCHpYkDHcw-10">
          <mxGeometry x="348" y="60" width="120" height="60" as="geometry" />
        </mxCell>
        <mxCell id="srE0o9tzIdVCHpYkDHcw-91" value="是" style="edgeStyle=orthogonalEdgeStyle;rounded=1;orthogonalLoop=1;jettySize=auto;html=1;curved=0;" edge="1" parent="srE0o9tzIdVCHpYkDHcw-10" source="srE0o9tzIdVCHpYkDHcw-89" target="srE0o9tzIdVCHpYkDHcw-90">
          <mxGeometry relative="1" as="geometry" />
        </mxCell>
        <mxCell id="srE0o9tzIdVCHpYkDHcw-93" value="否" style="edgeStyle=orthogonalEdgeStyle;shape=connector;curved=0;rounded=1;orthogonalLoop=1;jettySize=auto;html=1;strokeColor=default;align=center;verticalAlign=middle;fontFamily=Helvetica;fontSize=11;fontColor=default;labelBackgroundColor=default;endArrow=classic;" edge="1" parent="srE0o9tzIdVCHpYkDHcw-10" source="srE0o9tzIdVCHpYkDHcw-89" target="srE0o9tzIdVCHpYkDHcw-92">
          <mxGeometry relative="1" as="geometry" />
        </mxCell>
        <mxCell id="srE0o9tzIdVCHpYkDHcw-89" value="用户号是否已绑定客户号且绑定的客户号和当前进件的客户号不一致" style="rhombus;whiteSpace=wrap;html=1;fillColor=#B2C9AB;strokeColor=#788AA3;fontColor=#46495D;rounded=1;" vertex="1" parent="srE0o9tzIdVCHpYkDHcw-10">
          <mxGeometry x="47" y="200" width="194" height="100" as="geometry" />
        </mxCell>
        <mxCell id="srE0o9tzIdVCHpYkDHcw-90" value="&lt;font&gt;授信失败&lt;/font&gt;&lt;div&gt;&lt;div style=&quot;&quot;&gt;&lt;pre style=&quot;font-family: Menlo-Regular, monospace;&quot;&gt;&lt;font color=&quot;#000000&quot;&gt;进件身份证号与手机号&lt;/font&gt;&lt;/pre&gt;&lt;pre style=&quot;font-family: Menlo-Regular, monospace;&quot;&gt;&lt;font color=&quot;#000000&quot;&gt;绑定的身份证号不一致&lt;/font&gt;&lt;/pre&gt;&lt;/div&gt;&lt;/div&gt;" style="whiteSpace=wrap;html=1;fillColor=#B2C9AB;strokeColor=#788AA3;fontColor=#46495D;rounded=1;" vertex="1" parent="srE0o9tzIdVCHpYkDHcw-10">
          <mxGeometry x="326" y="205" width="164" height="90" as="geometry" />
        </mxCell>
        <mxCell id="srE0o9tzIdVCHpYkDHcw-95" value="" style="edgeStyle=orthogonalEdgeStyle;shape=connector;curved=0;rounded=1;orthogonalLoop=1;jettySize=auto;html=1;strokeColor=default;align=center;verticalAlign=middle;fontFamily=Helvetica;fontSize=11;fontColor=default;labelBackgroundColor=default;endArrow=classic;" edge="1" parent="srE0o9tzIdVCHpYkDHcw-10" source="srE0o9tzIdVCHpYkDHcw-92" target="srE0o9tzIdVCHpYkDHcw-94">
          <mxGeometry relative="1" as="geometry" />
        </mxCell>
        <mxCell id="srE0o9tzIdVCHpYkDHcw-92" value="开始处理上报风险挑战项数据" style="whiteSpace=wrap;html=1;fillColor=#B2C9AB;strokeColor=#788AA3;fontColor=#46495D;rounded=1;" vertex="1" parent="srE0o9tzIdVCHpYkDHcw-10">
          <mxGeometry x="104" y="360" width="120" height="60" as="geometry" />
        </mxCell>
        <mxCell id="srE0o9tzIdVCHpYkDHcw-97" value="" style="edgeStyle=orthogonalEdgeStyle;shape=connector;curved=0;rounded=1;orthogonalLoop=1;jettySize=auto;html=1;strokeColor=default;align=center;verticalAlign=middle;fontFamily=Helvetica;fontSize=11;fontColor=default;labelBackgroundColor=default;endArrow=classic;" edge="1" parent="srE0o9tzIdVCHpYkDHcw-10" source="srE0o9tzIdVCHpYkDHcw-94" target="srE0o9tzIdVCHpYkDHcw-96">
          <mxGeometry relative="1" as="geometry" />
        </mxCell>
        <mxCell id="srE0o9tzIdVCHpYkDHcw-94" value="处理基础信息base_info" style="whiteSpace=wrap;html=1;fillColor=#B2C9AB;strokeColor=#788AA3;fontColor=#46495D;rounded=1;" vertex="1" parent="srE0o9tzIdVCHpYkDHcw-10">
          <mxGeometry x="104" y="460" width="120" height="60" as="geometry" />
        </mxCell>
        <mxCell id="srE0o9tzIdVCHpYkDHcw-99" value="" style="edgeStyle=orthogonalEdgeStyle;shape=connector;curved=0;rounded=1;orthogonalLoop=1;jettySize=auto;html=1;strokeColor=default;align=center;verticalAlign=middle;fontFamily=Helvetica;fontSize=11;fontColor=default;labelBackgroundColor=default;endArrow=classic;" edge="1" parent="srE0o9tzIdVCHpYkDHcw-10" source="srE0o9tzIdVCHpYkDHcw-96" target="srE0o9tzIdVCHpYkDHcw-98">
          <mxGeometry relative="1" as="geometry" />
        </mxCell>
        <mxCell id="srE0o9tzIdVCHpYkDHcw-100" value="是" style="edgeLabel;html=1;align=center;verticalAlign=middle;resizable=0;points=[];fontFamily=Helvetica;fontSize=11;fontColor=default;labelBackgroundColor=default;" vertex="1" connectable="0" parent="srE0o9tzIdVCHpYkDHcw-99">
          <mxGeometry x="-0.2553" y="-3" relative="1" as="geometry">
            <mxPoint as="offset" />
          </mxGeometry>
        </mxCell>
        <mxCell id="srE0o9tzIdVCHpYkDHcw-102" value="否" style="edgeStyle=orthogonalEdgeStyle;shape=connector;curved=0;rounded=1;orthogonalLoop=1;jettySize=auto;html=1;strokeColor=default;align=center;verticalAlign=middle;fontFamily=Helvetica;fontSize=11;fontColor=default;labelBackgroundColor=default;endArrow=classic;" edge="1" parent="srE0o9tzIdVCHpYkDHcw-10" source="srE0o9tzIdVCHpYkDHcw-96" target="srE0o9tzIdVCHpYkDHcw-101">
          <mxGeometry relative="1" as="geometry" />
        </mxCell>
        <mxCell id="srE0o9tzIdVCHpYkDHcw-96" value="基础信息是否缺失" style="rhombus;whiteSpace=wrap;html=1;fillColor=#B2C9AB;strokeColor=#788AA3;fontColor=#46495D;rounded=1;" vertex="1" parent="srE0o9tzIdVCHpYkDHcw-10">
          <mxGeometry x="66" y="560" width="196" height="80" as="geometry" />
        </mxCell>
        <mxCell id="srE0o9tzIdVCHpYkDHcw-98" value="授信失败" style="whiteSpace=wrap;html=1;fillColor=#B2C9AB;strokeColor=#788AA3;fontColor=#46495D;rounded=1;" vertex="1" parent="srE0o9tzIdVCHpYkDHcw-10">
          <mxGeometry x="356" y="570" width="120" height="60" as="geometry" />
        </mxCell>
        <mxCell id="srE0o9tzIdVCHpYkDHcw-106" style="edgeStyle=orthogonalEdgeStyle;shape=connector;curved=0;rounded=1;orthogonalLoop=1;jettySize=auto;html=1;entryX=0.5;entryY=0;entryDx=0;entryDy=0;strokeColor=default;align=center;verticalAlign=middle;fontFamily=Helvetica;fontSize=11;fontColor=default;labelBackgroundColor=default;endArrow=classic;" edge="1" parent="srE0o9tzIdVCHpYkDHcw-10" source="srE0o9tzIdVCHpYkDHcw-101" target="srE0o9tzIdVCHpYkDHcw-105">
          <mxGeometry relative="1" as="geometry" />
        </mxCell>
        <mxCell id="srE0o9tzIdVCHpYkDHcw-101" value="请求cis上报基础信息" style="whiteSpace=wrap;html=1;fillColor=#B2C9AB;strokeColor=#788AA3;fontColor=#46495D;rounded=1;" vertex="1" parent="srE0o9tzIdVCHpYkDHcw-10">
          <mxGeometry x="104" y="690" width="120" height="60" as="geometry" />
        </mxCell>
        <mxCell id="srE0o9tzIdVCHpYkDHcw-107" style="edgeStyle=orthogonalEdgeStyle;shape=connector;curved=0;rounded=1;orthogonalLoop=1;jettySize=auto;html=1;strokeColor=default;align=center;verticalAlign=middle;fontFamily=Helvetica;fontSize=11;fontColor=default;labelBackgroundColor=default;endArrow=classic;" edge="1" parent="srE0o9tzIdVCHpYkDHcw-10" source="srE0o9tzIdVCHpYkDHcw-105" target="srE0o9tzIdVCHpYkDHcw-98">
          <mxGeometry relative="1" as="geometry" />
        </mxCell>
        <mxCell id="srE0o9tzIdVCHpYkDHcw-108" value="是" style="edgeLabel;html=1;align=center;verticalAlign=middle;resizable=0;points=[];fontFamily=Helvetica;fontSize=11;fontColor=default;labelBackgroundColor=default;" vertex="1" connectable="0" parent="srE0o9tzIdVCHpYkDHcw-107">
          <mxGeometry x="-0.4725" y="2" relative="1" as="geometry">
            <mxPoint as="offset" />
          </mxGeometry>
        </mxCell>
        <mxCell id="srE0o9tzIdVCHpYkDHcw-110" value="" style="edgeStyle=orthogonalEdgeStyle;shape=connector;curved=0;rounded=1;orthogonalLoop=1;jettySize=auto;html=1;strokeColor=default;align=center;verticalAlign=middle;fontFamily=Helvetica;fontSize=11;fontColor=default;labelBackgroundColor=default;endArrow=classic;" edge="1" parent="srE0o9tzIdVCHpYkDHcw-10" source="srE0o9tzIdVCHpYkDHcw-105" target="srE0o9tzIdVCHpYkDHcw-109">
          <mxGeometry relative="1" as="geometry" />
        </mxCell>
        <mxCell id="srE0o9tzIdVCHpYkDHcw-105" value="联系人信息是否不足" style="rhombus;whiteSpace=wrap;html=1;fillColor=#B2C9AB;strokeColor=#788AA3;fontColor=#46495D;rounded=1;" vertex="1" parent="srE0o9tzIdVCHpYkDHcw-10">
          <mxGeometry x="66" y="800" width="196" height="80" as="geometry" />
        </mxCell>
        <mxCell id="srE0o9tzIdVCHpYkDHcw-115" value="" style="edgeStyle=orthogonalEdgeStyle;shape=connector;curved=0;rounded=1;orthogonalLoop=1;jettySize=auto;html=1;strokeColor=default;align=center;verticalAlign=middle;fontFamily=Helvetica;fontSize=11;fontColor=default;labelBackgroundColor=default;endArrow=classic;" edge="1" parent="srE0o9tzIdVCHpYkDHcw-10" source="srE0o9tzIdVCHpYkDHcw-109" target="srE0o9tzIdVCHpYkDHcw-114">
          <mxGeometry relative="1" as="geometry" />
        </mxCell>
        <mxCell id="srE0o9tzIdVCHpYkDHcw-109" value="请求cis上报联系人信息" style="whiteSpace=wrap;html=1;fillColor=#B2C9AB;strokeColor=#788AA3;fontColor=#46495D;rounded=1;" vertex="1" parent="srE0o9tzIdVCHpYkDHcw-10">
          <mxGeometry x="104" y="930" width="120" height="60" as="geometry" />
        </mxCell>
        <mxCell id="srE0o9tzIdVCHpYkDHcw-117" style="edgeStyle=orthogonalEdgeStyle;shape=connector;curved=0;rounded=1;orthogonalLoop=1;jettySize=auto;html=1;entryX=0.5;entryY=0;entryDx=0;entryDy=0;strokeColor=default;align=center;verticalAlign=middle;fontFamily=Helvetica;fontSize=11;fontColor=default;labelBackgroundColor=default;endArrow=classic;" edge="1" parent="srE0o9tzIdVCHpYkDHcw-10" source="srE0o9tzIdVCHpYkDHcw-114" target="srE0o9tzIdVCHpYkDHcw-116">
          <mxGeometry relative="1" as="geometry" />
        </mxCell>
        <mxCell id="srE0o9tzIdVCHpYkDHcw-114" value="开始处理ocr数据" style="whiteSpace=wrap;html=1;fillColor=#B2C9AB;strokeColor=#788AA3;fontColor=#46495D;rounded=1;" vertex="1" parent="srE0o9tzIdVCHpYkDHcw-10">
          <mxGeometry x="104" y="1030" width="120" height="60" as="geometry" />
        </mxCell>
        <mxCell id="srE0o9tzIdVCHpYkDHcw-118" style="edgeStyle=orthogonalEdgeStyle;shape=connector;curved=0;rounded=1;orthogonalLoop=1;jettySize=auto;html=1;entryX=0.5;entryY=1;entryDx=0;entryDy=0;strokeColor=default;align=center;verticalAlign=middle;fontFamily=Helvetica;fontSize=11;fontColor=default;labelBackgroundColor=default;endArrow=classic;" edge="1" parent="srE0o9tzIdVCHpYkDHcw-10" source="srE0o9tzIdVCHpYkDHcw-116" target="srE0o9tzIdVCHpYkDHcw-98">
          <mxGeometry relative="1" as="geometry" />
        </mxCell>
        <mxCell id="srE0o9tzIdVCHpYkDHcw-119" value="是" style="edgeLabel;html=1;align=center;verticalAlign=middle;resizable=0;points=[];fontFamily=Helvetica;fontSize=11;fontColor=default;labelBackgroundColor=default;" vertex="1" connectable="0" parent="srE0o9tzIdVCHpYkDHcw-118">
          <mxGeometry x="-0.7752" y="5" relative="1" as="geometry">
            <mxPoint as="offset" />
          </mxGeometry>
        </mxCell>
        <mxCell id="srE0o9tzIdVCHpYkDHcw-121" value="否" style="edgeStyle=orthogonalEdgeStyle;shape=connector;curved=0;rounded=1;orthogonalLoop=1;jettySize=auto;html=1;strokeColor=default;align=center;verticalAlign=middle;fontFamily=Helvetica;fontSize=11;fontColor=default;labelBackgroundColor=default;endArrow=classic;" edge="1" parent="srE0o9tzIdVCHpYkDHcw-10" source="srE0o9tzIdVCHpYkDHcw-116" target="srE0o9tzIdVCHpYkDHcw-120">
          <mxGeometry relative="1" as="geometry" />
        </mxCell>
        <mxCell id="srE0o9tzIdVCHpYkDHcw-116" value="ocr正反面是否有缺失" style="rhombus;whiteSpace=wrap;html=1;fillColor=#B2C9AB;strokeColor=#788AA3;fontColor=#46495D;rounded=1;" vertex="1" parent="srE0o9tzIdVCHpYkDHcw-10">
          <mxGeometry x="66" y="1130" width="196" height="80" as="geometry" />
        </mxCell>
        <mxCell id="srE0o9tzIdVCHpYkDHcw-126" style="edgeStyle=orthogonalEdgeStyle;shape=connector;curved=0;rounded=1;orthogonalLoop=1;jettySize=auto;html=1;entryX=0.5;entryY=0;entryDx=0;entryDy=0;strokeColor=default;align=center;verticalAlign=middle;fontFamily=Helvetica;fontSize=11;fontColor=default;labelBackgroundColor=default;endArrow=classic;" edge="1" parent="srE0o9tzIdVCHpYkDHcw-10" source="srE0o9tzIdVCHpYkDHcw-120" target="srE0o9tzIdVCHpYkDHcw-125">
          <mxGeometry relative="1" as="geometry" />
        </mxCell>
        <mxCell id="srE0o9tzIdVCHpYkDHcw-120" value="请求cis初始化ocr数据" style="whiteSpace=wrap;html=1;fillColor=#B2C9AB;strokeColor=#788AA3;fontColor=#46495D;rounded=1;" vertex="1" parent="srE0o9tzIdVCHpYkDHcw-10">
          <mxGeometry x="104" y="1260" width="120" height="60" as="geometry" />
        </mxCell>
        <mxCell id="srE0o9tzIdVCHpYkDHcw-128" style="edgeStyle=orthogonalEdgeStyle;shape=connector;curved=0;rounded=1;orthogonalLoop=1;jettySize=auto;html=1;entryX=0.5;entryY=0;entryDx=0;entryDy=0;strokeColor=default;align=center;verticalAlign=middle;fontFamily=Helvetica;fontSize=11;fontColor=default;labelBackgroundColor=default;endArrow=classic;" edge="1" parent="srE0o9tzIdVCHpYkDHcw-10" source="srE0o9tzIdVCHpYkDHcw-125" target="srE0o9tzIdVCHpYkDHcw-127">
          <mxGeometry relative="1" as="geometry" />
        </mxCell>
        <mxCell id="srE0o9tzIdVCHpYkDHcw-125" value="开始处理face数据" style="whiteSpace=wrap;html=1;fillColor=#B2C9AB;strokeColor=#788AA3;fontColor=#46495D;rounded=1;" vertex="1" parent="srE0o9tzIdVCHpYkDHcw-10">
          <mxGeometry x="104" y="1360" width="120" height="60" as="geometry" />
        </mxCell>
        <mxCell id="srE0o9tzIdVCHpYkDHcw-130" value="" style="edgeStyle=orthogonalEdgeStyle;shape=connector;curved=0;rounded=1;orthogonalLoop=1;jettySize=auto;html=1;strokeColor=default;align=center;verticalAlign=middle;fontFamily=Helvetica;fontSize=11;fontColor=default;labelBackgroundColor=default;endArrow=classic;" edge="1" parent="srE0o9tzIdVCHpYkDHcw-10" source="srE0o9tzIdVCHpYkDHcw-127" target="srE0o9tzIdVCHpYkDHcw-129">
          <mxGeometry relative="1" as="geometry" />
        </mxCell>
        <mxCell id="srE0o9tzIdVCHpYkDHcw-131" value="否" style="edgeLabel;html=1;align=center;verticalAlign=middle;resizable=0;points=[];fontFamily=Helvetica;fontSize=11;fontColor=default;labelBackgroundColor=default;" vertex="1" connectable="0" parent="srE0o9tzIdVCHpYkDHcw-130">
          <mxGeometry x="-0.3" y="1" relative="1" as="geometry">
            <mxPoint as="offset" />
          </mxGeometry>
        </mxCell>
        <mxCell id="srE0o9tzIdVCHpYkDHcw-136" style="edgeStyle=orthogonalEdgeStyle;shape=connector;curved=0;rounded=1;orthogonalLoop=1;jettySize=auto;html=1;entryX=1;entryY=0.5;entryDx=0;entryDy=0;strokeColor=default;align=center;verticalAlign=middle;fontFamily=Helvetica;fontSize=11;fontColor=default;labelBackgroundColor=default;endArrow=classic;" edge="1" parent="srE0o9tzIdVCHpYkDHcw-10" source="srE0o9tzIdVCHpYkDHcw-127" target="srE0o9tzIdVCHpYkDHcw-135">
          <mxGeometry relative="1" as="geometry">
            <Array as="points">
              <mxPoint x="506" y="1500" />
              <mxPoint x="506" y="1750" />
            </Array>
          </mxGeometry>
        </mxCell>
        <mxCell id="srE0o9tzIdVCHpYkDHcw-137" value="是" style="edgeLabel;html=1;align=center;verticalAlign=middle;resizable=0;points=[];fontFamily=Helvetica;fontSize=11;fontColor=default;labelBackgroundColor=default;" vertex="1" connectable="0" parent="srE0o9tzIdVCHpYkDHcw-136">
          <mxGeometry x="-0.7139" relative="1" as="geometry">
            <mxPoint as="offset" />
          </mxGeometry>
        </mxCell>
        <mxCell id="srE0o9tzIdVCHpYkDHcw-127" value="用户号+客户号维度历史是否有face通过的记录" style="rhombus;whiteSpace=wrap;html=1;fillColor=#B2C9AB;strokeColor=#788AA3;fontColor=#46495D;rounded=1;" vertex="1" parent="srE0o9tzIdVCHpYkDHcw-10">
          <mxGeometry x="66" y="1460" width="196" height="80" as="geometry" />
        </mxCell>
        <mxCell id="srE0o9tzIdVCHpYkDHcw-129" value="请求cis初始化face数据" style="whiteSpace=wrap;html=1;fillColor=#B2C9AB;strokeColor=#788AA3;fontColor=#46495D;rounded=1;" vertex="1" parent="srE0o9tzIdVCHpYkDHcw-10">
          <mxGeometry x="104" y="1580" width="120" height="60" as="geometry" />
        </mxCell>
        <mxCell id="srE0o9tzIdVCHpYkDHcw-135" value="保存风险挑战项数据到进件表" style="whiteSpace=wrap;html=1;fillColor=#B2C9AB;strokeColor=#788AA3;fontColor=#46495D;rounded=1;" vertex="1" parent="srE0o9tzIdVCHpYkDHcw-10">
          <mxGeometry x="104" y="1720" width="120" height="60" as="geometry" />
        </mxCell>
        <mxCell id="srE0o9tzIdVCHpYkDHcw-61" value="CIS" style="swimlane;startSize=20;html=1;labelBackgroundColor=none;fillColor=#B2C9AB;strokeColor=#788AA3;fontColor=#46495D;" vertex="1" parent="srE0o9tzIdVCHpYkDHcw-1">
          <mxGeometry x="710" y="20" width="210" height="1880" as="geometry" />
        </mxCell>
        <mxCell id="srE0o9tzIdVCHpYkDHcw-103" value="&lt;font style=&quot;font-size: 12px;&quot;&gt;上报风险挑战项接口&lt;/font&gt;" style="whiteSpace=wrap;html=1;fillColor=#B2C9AB;strokeColor=#788AA3;fontColor=#46495D;rounded=1;fontFamily=Helvetica;fontSize=11;labelBackgroundColor=default;" vertex="1" parent="srE0o9tzIdVCHpYkDHcw-61">
          <mxGeometry x="44.999999999999545" y="690" width="120" height="60" as="geometry" />
        </mxCell>
        <mxCell id="srE0o9tzIdVCHpYkDHcw-122" value="&lt;font style=&quot;font-size: 12px;&quot;&gt;保存ocr数据接口&lt;/font&gt;" style="whiteSpace=wrap;html=1;fillColor=#B2C9AB;strokeColor=#788AA3;fontColor=#46495D;rounded=1;fontFamily=Helvetica;fontSize=11;labelBackgroundColor=default;" vertex="1" parent="srE0o9tzIdVCHpYkDHcw-61">
          <mxGeometry x="44.999999999999545" y="1260" width="120" height="60" as="geometry" />
        </mxCell>
        <mxCell id="srE0o9tzIdVCHpYkDHcw-132" value="&lt;font style=&quot;font-size: 12px;&quot;&gt;保存face数据接口&lt;/font&gt;" style="whiteSpace=wrap;html=1;fillColor=#B2C9AB;strokeColor=#788AA3;fontColor=#46495D;rounded=1;fontFamily=Helvetica;fontSize=11;labelBackgroundColor=default;" vertex="1" parent="srE0o9tzIdVCHpYkDHcw-61">
          <mxGeometry x="44.999999999999545" y="1580" width="120" height="60" as="geometry" />
        </mxCell>
        <mxCell id="srE0o9tzIdVCHpYkDHcw-67" value="" style="edgeStyle=orthogonalEdgeStyle;rounded=1;orthogonalLoop=1;jettySize=auto;html=1;strokeColor=#788AA3;fontColor=#46495D;fillColor=#B2C9AB;entryX=0;entryY=0.5;entryDx=0;entryDy=0;curved=0;" edge="1" parent="srE0o9tzIdVCHpYkDHcw-1" source="srE0o9tzIdVCHpYkDHcw-8" target="srE0o9tzIdVCHpYkDHcw-15">
          <mxGeometry relative="1" as="geometry" />
        </mxCell>
        <mxCell id="srE0o9tzIdVCHpYkDHcw-83" value="账务系统fas" style="swimlane;startSize=20;html=1;labelBackgroundColor=none;fillColor=#B2C9AB;strokeColor=#788AA3;fontColor=#46495D;" vertex="1" parent="srE0o9tzIdVCHpYkDHcw-1">
          <mxGeometry x="920" y="20" width="250" height="1880" as="geometry" />
        </mxCell>
        <mxCell id="srE0o9tzIdVCHpYkDHcw-104" style="edgeStyle=orthogonalEdgeStyle;shape=connector;curved=0;rounded=1;orthogonalLoop=1;jettySize=auto;html=1;strokeColor=default;align=center;verticalAlign=middle;fontFamily=Helvetica;fontSize=11;fontColor=default;labelBackgroundColor=default;endArrow=classic;" edge="1" parent="srE0o9tzIdVCHpYkDHcw-1" source="srE0o9tzIdVCHpYkDHcw-101" target="srE0o9tzIdVCHpYkDHcw-103">
          <mxGeometry relative="1" as="geometry" />
        </mxCell>
        <mxCell id="srE0o9tzIdVCHpYkDHcw-111" style="edgeStyle=orthogonalEdgeStyle;shape=connector;curved=0;rounded=1;orthogonalLoop=1;jettySize=auto;html=1;entryX=0.5;entryY=1;entryDx=0;entryDy=0;strokeColor=default;align=center;verticalAlign=middle;fontFamily=Helvetica;fontSize=11;fontColor=default;labelBackgroundColor=default;endArrow=classic;" edge="1" parent="srE0o9tzIdVCHpYkDHcw-1" source="srE0o9tzIdVCHpYkDHcw-109" target="srE0o9tzIdVCHpYkDHcw-103">
          <mxGeometry relative="1" as="geometry" />
        </mxCell>
        <mxCell id="srE0o9tzIdVCHpYkDHcw-123" style="edgeStyle=orthogonalEdgeStyle;shape=connector;curved=0;rounded=1;orthogonalLoop=1;jettySize=auto;html=1;strokeColor=default;align=center;verticalAlign=middle;fontFamily=Helvetica;fontSize=11;fontColor=default;labelBackgroundColor=default;endArrow=classic;" edge="1" parent="srE0o9tzIdVCHpYkDHcw-1" source="srE0o9tzIdVCHpYkDHcw-120" target="srE0o9tzIdVCHpYkDHcw-122">
          <mxGeometry relative="1" as="geometry" />
        </mxCell>
        <mxCell id="srE0o9tzIdVCHpYkDHcw-124" value="&lt;div style=&quot;background-color:#fdf2e3;color:#080808&quot;&gt;&lt;pre style=&quot;font-family:&#39;JetBrains Mono&#39;,monospace;font-size:11.3pt;&quot;&gt;&lt;span style=&quot;color:#067d17;&quot;&gt;saveOrUpdateFaceIdCard&lt;/span&gt;&lt;/pre&gt;&lt;/div&gt;" style="edgeLabel;html=1;align=center;verticalAlign=middle;resizable=0;points=[];fontFamily=Helvetica;fontSize=11;fontColor=default;labelBackgroundColor=default;" vertex="1" connectable="0" parent="srE0o9tzIdVCHpYkDHcw-123">
          <mxGeometry x="-0.0769" y="-1" relative="1" as="geometry">
            <mxPoint as="offset" />
          </mxGeometry>
        </mxCell>
        <mxCell id="srE0o9tzIdVCHpYkDHcw-133" style="edgeStyle=orthogonalEdgeStyle;shape=connector;curved=0;rounded=1;orthogonalLoop=1;jettySize=auto;html=1;strokeColor=default;align=center;verticalAlign=middle;fontFamily=Helvetica;fontSize=11;fontColor=default;labelBackgroundColor=default;endArrow=classic;" edge="1" parent="srE0o9tzIdVCHpYkDHcw-1" source="srE0o9tzIdVCHpYkDHcw-129" target="srE0o9tzIdVCHpYkDHcw-132">
          <mxGeometry relative="1" as="geometry" />
        </mxCell>
        <mxCell id="srE0o9tzIdVCHpYkDHcw-134" value="&lt;div style=&quot;background-color:#fdf2e3;color:#080808&quot;&gt;&lt;pre style=&quot;font-family:&#39;JetBrains Mono&#39;,monospace;font-size:11.3pt;&quot;&gt;&lt;span style=&quot;color:#067d17;&quot;&gt;saveOrUpdateFaceVerify&lt;/span&gt;&lt;/pre&gt;&lt;/div&gt;" style="edgeLabel;html=1;align=center;verticalAlign=middle;resizable=0;points=[];fontFamily=Helvetica;fontSize=11;fontColor=default;labelBackgroundColor=default;" vertex="1" connectable="0" parent="srE0o9tzIdVCHpYkDHcw-133">
          <mxGeometry x="-0.1795" y="4" relative="1" as="geometry">
            <mxPoint x="18" y="4" as="offset" />
          </mxGeometry>
        </mxCell>
      </root>
    </mxGraphModel>
  </diagram>
</mxfile>
